{
  "accessors": [
    {
      "bufferView": 2,
      "componentType": 5126,
      "count": 19438,
      "max": [
        6.9470648765563965,
        10.807656288146973,
        5.233075141906738
      ],
      "min": [
        -10.779934883117676,
        -11.122854232788086,
        -4.076087951660156
      ],
      "type": "VEC3"
    },
    {
      "bufferView": 2,
      "byteOffset": 233256,
      "componentType": 5126,
      "count": 19438,
      "max": [
        0.9992762804031372,
        0.9973918795585632,
        0.9999889731407166
      ],
      "min": [
        -0.9984639286994934,
        -0.999800980091095,
        -0.9983490705490112
      ],
      "type": "VEC3"
    },
    {
      "bufferView": 3,
      "componentType": 5126,
      "count": 19438,
      "max": [
        0.9999966621398926,
        0.99980229139328,
        0.9983072876930237,
        1.0
      ],
      "min": [
        -0.9998642802238464,
        -0.999599814414978,
        -0.9993950128555298,
        -1.0
      ],
      "type": "VEC4"
    },
    {
      "bufferView": 1,
      "componentType": 5126,
      "count": 19438,
      "max": [
        0.9979999661445618,
        0.992742121219635
      ],
      "min": [
        0.0020000000949949026,
        0.0020000000949949026
      ],
      "type": "VEC2"
    },
    {
      "bufferView": 0,
      "componentType": 5125,
      "count": 104907,
      "type": "SCALAR"
    }
  ],
  "asset": {
    "extras": {
      "author": "3dhdscan (https://sketchfab.com/3dhdscan)",
      "license": "CC-BY-4.0 (http://creativecommons.org/licenses/by/4.0/)",
      "source": "https://sketchfab.com/3d-models/gray-big-rock-70b586d54a1e46ab9398f25369a39df3",
      "title": "Gray Big Rock"
    },
    "generator": "Sketchfab-12.67.0",
    "version": "2.0"
  },
  "bufferViews": [
    {
      "buffer": 0,
      "byteLength": 419628,
      "name": "floatBufferViews",
      "target": 34963
    },
    {
      "buffer": 0,
      "byteLength": 155504,
      "byteOffset": 419628,
      "byteStride": 8,
      "name": "floatBufferViews",
      "target": 34962
    },
    {
      "buffer": 0,
      "byteLength": 466512,
      "byteOffset": 575132,
      "byteStride": 12,
      "name": "floatBufferViews",
      "target": 34962
    },
    {
      "buffer": 0,
      "byteLength": 311008,
      "byteOffset": 1041644,
      "byteStride": 16,
      "name": "floatBufferViews",
      "target": 34962
    }
  ],
  "buffers": [
    {
      "byteLength": 1352652,
      "uri": "scene.bin"
    }
  ],
  "images": [
    {
      "uri": "textures/sutr_tmave_sedy_baseColor.jpeg"
    },
    {
      "uri": "textures/sutr_tmave_sedy_metallicRoughness.png"
    },
    {
      "uri": "textures/sutr_tmave_sedy_normal.jpeg"
    }
  ],
  "materials": [
    {
      "doubleSided": true,
      "name": "sutr_tmave_sedy",
      "normalTexture": {
        "index": 2
      },
      "occlusionTexture": {
        "index": 1
      },
      "pbrMetallicRoughness": {
        "baseColorTexture": {
          "index": 0
        },
        "metallicFactor": 0.0,
        "metallicRoughnessTexture": {
          "index": 1
        },
        "roughnessFactor": 0.7116996951219512
      }
    }
  ],
  "meshes": [
    {
      "name": "sutr_tmave_sedy_sutr_tmave_sedy_0",
      "primitives": [
        {
          "attributes": {
            "NORMAL": 1,
            "POSITION": 0,
            "TANGENT": 2,
            "TEXCOORD_0": 3
          },
          "indices": 4,
          "material": 0,
          "mode": 4
        }
      ]
    }
  ],
  "nodes": [
    {
      "children": [
        1
      ],
      "matrix": [
        -3.6539241104207004e-17,
        -1.8269620552103496e-17,
        0.08227905631065369,
        0.0,
        -0.08227905631065369,
        2.330775883037526e-17,
        -3.6539241104207e-17,
        0.0,
        -2.330775883037525e-17,
        -0.08227905631065369,
        -1.8269620552103508e-17,
        0.0,
        -0.12425840646028519,
        -10.1276273727417,
        0.12425840646028294,
        1.0
      ],
      "name": "Sketchfab_model"
    },
    {
      "children": [
        2
      ],
      "matrix": [
        1.0,
        0.0,
        0.0,
        0.0,
        0.0,
        -1.0,
        0.0,
        0.0,
        0.0,
        0.0,
        -1.0,
        0.0,
        0.0,
        0.0,
        0.0,
        1.0
      ],
      "name": "sutr_tmave_sedy.FBX"
    },
    {
      "children": [
        3
      ],
      "name": "RootNode"
    },
    {
      "children": [
        4
      ],
      "matrix": [
        1.0,
        0.0,
        0.0,
        0.0,
        0.0,
        1.0,
        0.0,
        0.0,
        0.0,
        0.0,
        1.0,
        0.0,
        1.5424413681030273,
        -0.09206295013427734,
        4.485307216644287,
        1.0
      ],
      "name": "sutr_tmave_sedy"
    },
    {
      "mesh": 0,
      "name": "sutr_tmave_sedy_sutr_tmave_sedy_0"
    }
  ],
  "samplers": [
    {
      "magFilter": 9729,
      "minFilter": 9987,
      "wrapS": 10497,
      "wrapT": 10497
    }
  ],
  "scene": 0,
  "scenes": [
    {
      "name": "Sketchfab_Scene",
      "nodes": [
        0
      ]
    }
  ],
  "textures": [
    {
      "sampler": 0,
      "source": 0
    },
    {
      "sampler": 0,
      "source": 1
    },
    {
      "sampler": 0,
      "source": 2
    }
  ]
}
